<svg xmlns="http://www.w3.org/2000/svg" width="50" height="50" viewBox="0 0 50 50">
  <g id="dropshipping" transform="translate(0 -1169)">
    <rect id="Rectangle_2551" data-name="Rectangle 2551" width="50" height="50" rx="20" transform="translate(0 1169)" fill="#6cbc2a" opacity="0.05"/>
    <g id="vuesax_bold_3d-rotate" data-name="vuesax/bold/3d-rotate" transform="translate(-351 930)">
      <g id="_3d-rotate" data-name="3d-rotate">
        <path id="Vector" d="M0,0H24V24H0Z" transform="translate(364 252)" fill="none" opacity="0"/>
        <g id="Group">
          <path id="Vector-2" data-name="Vector" d="M.746,8.51A.752.752,0,0,1,.1,8.13a.764.764,0,0,1,.01-.76l1.05-1.75a.758.758,0,0,1,1.03-.26.749.749,0,0,1,.26,1.03l-.27.45A6.272,6.272,0,0,0,7.006.75a.75.75,0,0,1,1.5,0A7.78,7.78,0,0,1,.746,8.51Z" transform="translate(378.254 266.24)" fill="#6cbc2a"/>
        </g>
        <g id="Group-2" data-name="Group">
          <path id="Vector-3" data-name="Vector" d="M.75,8.5A.755.755,0,0,1,0,7.75,7.763,7.763,0,0,1,7.75,0,.752.752,0,0,1,8.4.38a.764.764,0,0,1-.01.76L7.34,2.89a.749.749,0,0,1-1.28-.78l.27-.45A6.261,6.261,0,0,0,1.5,7.75.755.755,0,0,1,.75,8.5Z" transform="translate(365.25 253.25)" fill="#6cbc2a"/>
        </g>
        <path id="Vector-4" data-name="Vector" d="M9.24,2.188,5.48.157a1.359,1.359,0,0,0-1.27,0L.44,2.188a.885.885,0,0,0,0,1.53L4.2,5.748a1.36,1.36,0,0,0,1.28,0l3.76-2.03a.885.885,0,0,0,0-1.53Z" transform="translate(371.16 258.022)" fill="#6cbc2a"/>
        <path id="Vector-5" data-name="Vector" d="M4.74,1.84,1.24.09A.867.867,0,0,0,.4.13.86.86,0,0,0,0,.86V4.17A1.488,1.488,0,0,0,.83,5.51l3.5,1.75a.86.86,0,0,0,.39.09.812.812,0,0,0,.45-.13.847.847,0,0,0,.41-.73V3.18A1.509,1.509,0,0,0,4.74,1.84Z" transform="translate(370 262.63)" fill="#6cbc2a"/>
        <path id="Vector-6" data-name="Vector" d="M5.17.13A.867.867,0,0,0,4.33.09L.83,1.84A1.5,1.5,0,0,0,0,3.18V6.49a.847.847,0,0,0,.41.73.812.812,0,0,0,.45.13.924.924,0,0,0,.39-.09l3.5-1.75a1.5,1.5,0,0,0,.83-1.34V.86A.847.847,0,0,0,5.17.13Z" transform="translate(376.42 262.63)" fill="#6cbc2a"/>
      </g>
    </g>
  </g>
</svg>
