<svg xmlns="http://www.w3.org/2000/svg" width="50" height="50" viewBox="0 0 50 50">
  <g id="askquestions" transform="translate(0 -1169)">
    <rect id="Rectangle_2551" data-name="Rectangle 2551" width="50" height="50" rx="20" transform="translate(0 1169)" fill="#6cbc2a" opacity="0.05"/>
    <g id="vuesax_bold_messages-2" data-name="vuesax/bold/messages-2" transform="translate(-415 930)">
      <g id="messages-2">
        <path id="Subtraction_1" data-name="Subtraction 1" d="M2.573,11.911A.632.632,0,0,1,2.1,11.7a.613.613,0,0,1-.152-.485L2.2,9.24A4.96,4.96,0,0,1,0,5.14,5.03,5.03,0,0,1,2.38.91,5.7,5.7,0,0,1,5.5,0,5.335,5.335,0,0,1,11,5.14,4.89,4.89,0,0,1,9.82,8.3,5.552,5.552,0,0,1,5.5,10.27L2.89,11.82A.6.6,0,0,1,2.573,11.911ZM4.76,6.439H6.754l.334.922h1.2l-2-5.087H5.265L3.247,7.361H4.422l.338-.922Zm1.661-.923H5.1L5.764,3.7,6.42,5.515Z" transform="translate(430 262.09)" fill="#6cbc2a"/>
        <path id="Subtraction_2" data-name="Subtraction 2" d="M13.306,19.116a.973.973,0,0,1-.511-.146L9.334,16.91a.5.5,0,0,1-.17-.68,6.266,6.266,0,0,0,.357-5.247l.128,0a3.246,3.246,0,0,0,1.259-.241,3.34,3.34,0,0,0,.546-.29l.911.911.784-.785-.894-.894a3.072,3.072,0,0,0,.342-.61,3.316,3.316,0,0,0,0-2.483,3.047,3.047,0,0,0-.677-1A3.116,3.116,0,0,0,10.9,4.929a3.5,3.5,0,0,0-2.534,0,3.116,3.116,0,0,0-1.017.663,3.048,3.048,0,0,0-.9,1.9,7.276,7.276,0,0,0-3.516-.9,7.211,7.211,0,0,0-2.28.36A.491.491,0,0,1,.11,6.781a.5.5,0,0,1-.1-.431A8.212,8.212,0,0,1,3.083,1.81,9.251,9.251,0,0,1,8.6,0c4.869,0,8.83,3.7,8.83,8.24a7.711,7.711,0,0,1-.962,3.745A8.485,8.485,0,0,1,13.9,14.83l.39,3.16a.99.99,0,0,1-.242.786A1,1,0,0,1,13.306,19.116ZM9.632,9.752a1.9,1.9,0,0,1-.737-.139c-.047-.019-.093-.041-.137-.064A6.786,6.786,0,0,0,7.946,8.6a2.276,2.276,0,0,1-.124-.769,2.109,2.109,0,0,1,.229-1,1.669,1.669,0,0,1,.634-.664,1.855,1.855,0,0,1,.948-.237,1.993,1.993,0,0,1,.746.133,1.622,1.622,0,0,1,.573.388,1.761,1.761,0,0,1,.371.6,2.262,2.262,0,0,1,.129.78,2.186,2.186,0,0,1-.17.881L10.3,7.735l-.784.785,1.02,1.02A1.875,1.875,0,0,1,9.632,9.752Z" transform="translate(432.566 254)" fill="#6cbc2a"/>
        <path id="Vector" d="M0,0H24V24H0Z" transform="translate(428 252)" fill="none" opacity="0"/>
      </g>
    </g>
  </g>
</svg>
