<svg xmlns="http://www.w3.org/2000/svg" width="50" height="50" viewBox="0 0 50 50">
  <g id="fba" transform="translate(0 -1169)">
    <rect id="Rectangle_2551" data-name="Rectangle 2551" width="50" height="50" rx="20" transform="translate(0 1169)" fill="#6cbc2a" opacity="0.05"/>
    <g id="vuesax_outline_user-square" data-name="vuesax/outline/user-square" transform="translate(10 1179)">
      <g id="user-square">
        <path id="Vector" d="M0,0H29.621V29.621H0Z" fill="none" opacity="0"/>
        <g id="DDP-Air-Freight-Forwarder-From-Shenzhen-China-to-USA-Amazon-Fba-Warehouse-Shipping-Service" transform="translate(2.734 4.236)">
          <path id="Union_2" data-name="Union 2" d="M21.774,13.269a2.78,2.78,0,0,1-.427-1.016,3.005,3.005,0,0,1-1.691,1,2.962,2.962,0,0,1-2.518-.6,2.833,2.833,0,0,1-.832-2.174,2.692,2.692,0,0,1,.811-2.023,4.078,4.078,0,0,1,2.239-.893,12,12,0,0,1,1.649-.089,5.5,5.5,0,0,0-.069-1.193.824.824,0,0,0-.485-.561,3.827,3.827,0,0,0-2.368.255,2.707,2.707,0,0,1-.642.191.869.869,0,0,1-.147-.247c-.117-.363-.235-.726-.359-1.086a.543.543,0,0,1-.026-.28,2.159,2.159,0,0,1,.987-.469,6.934,6.934,0,0,1,1.018-.2,5.858,5.858,0,0,1,2.764.158A2.137,2.137,0,0,1,23,5.394a4.618,4.618,0,0,1,.187,1.652v3.1a4.615,4.615,0,0,0,.4,2.09c.027.077.054.152.085.229-.033.078-.05.179-.148.2-.541.226-1.082.451-1.631.659ZM19.751,9.064a1.876,1.876,0,0,0-.942.479,1.327,1.327,0,0,0-.236,1.329,1.219,1.219,0,0,0,.613.659,1.391,1.391,0,0,0,.684.071,2.035,2.035,0,0,0,1.137-.662c0-.651,0-1.3,0-1.952-.091,0-.182,0-.272,0A5.252,5.252,0,0,0,19.751,9.064ZM8.929,13.3c-.5-.119-1-.246-1.5-.369-.1-.023-.247-.081-.207-.208.062-.19.169-.36.228-.551a4.082,4.082,0,0,0,.168-1.286q0-4.908,0-9.819a1.568,1.568,0,0,1,.058-.63C8.084.3,8.51.253,8.925.159A3.248,3.248,0,0,1,9.906.036a6.92,6.92,0,0,1,.025.859c0,1.217,0,2.435,0,3.652l.083-.013a3.088,3.088,0,0,1,1.674-.715,3.241,3.241,0,0,1,1.647.282,3,3,0,0,1,1.417,1.73,8.435,8.435,0,0,1,.343,3.191,5.532,5.532,0,0,1-1.1,3.132,3.2,3.2,0,0,1-1.67,1.052,3.421,3.421,0,0,1-1.683.011,2.014,2.014,0,0,1-.994-.686,2.02,2.02,0,0,1-.349.7.3.3,0,0,1-.226.089A.5.5,0,0,1,8.929,13.3Zm2-7.646a2.025,2.025,0,0,0-1,.6v4.867a1.562,1.562,0,0,0,2.281-.277,4.119,4.119,0,0,0,.578-2.385,4.311,4.311,0,0,0-.424-2.2,1.336,1.336,0,0,0-1.173-.63A1.445,1.445,0,0,0,10.93,5.651ZM1.8,12.991a.377.377,0,0,1-.121-.3c0-2.292,0-4.583,0-6.876-.191-.007-.382,0-.574,0a6.521,6.521,0,0,1-1-.035A1.347,1.347,0,0,1,0,5.412c.074-.368-.009-.752.044-1.127.011-.061.07-.1.106-.148a2.931,2.931,0,0,1,.656-.021,5.169,5.169,0,0,1,.63-.012c.081.008.16.018.242.025a11.792,11.792,0,0,1,.068-1.707A2.78,2.78,0,0,1,2.867.434a3.586,3.586,0,0,1,2.4-.389A3.484,3.484,0,0,1,6.735.5c.022.057.046.113.068.169-.134.461-.236.93-.367,1.391-.027.1-.11.247-.236.2a4.185,4.185,0,0,0-1.043-.3,1.289,1.289,0,0,0-.884.209,1.025,1.025,0,0,0-.256.628C3.984,3.232,4,3.667,4,4.1c.184,0,.37,0,.556,0,.293,0,.586-.006.879.017a2.445,2.445,0,0,1,.822.032c.1.027.125.152.1.243-.039.174-.091.346-.12.523l-.02.031a4.933,4.933,0,0,1-.183.722c-.046.131-.2.144-.317.144H4.977c-.328,0-.654,0-.98,0Q4,9.221,4,12.63a.476.476,0,0,1-.067.3c-.093.1-.236.07-.356.078-.219,0-.437,0-.656,0H2.6C2.333,13,2.068,13,1.8,12.991Z" transform="translate(0.22 0)" fill="#6cbc2a"/>
          <g id="_ff9a00ff" data-name="#ff9a00ff" transform="translate(0 14.273)">
            <path id="Union_1" data-name="Union 1" d="M8.811,6.508A16.468,16.468,0,0,1,1.957,2.729,14.491,14.491,0,0,1,.081.713.383.383,0,0,1,.04.3.41.41,0,0,1,.486.319a31.975,31.975,0,0,0,5.13,2.929A16.288,16.288,0,0,0,10.281,4.5a17.243,17.243,0,0,0,7.555-.941A24.391,24.391,0,0,0,20.97,2.224c.2-.1.43-.23.651-.107l.078.123a.937.937,0,0,1-.257.673,9.309,9.309,0,0,1-1.724,1.5,13.7,13.7,0,0,1-6.671,2.4c-.407.04-.816.059-1.225.059A12.461,12.461,0,0,1,8.811,6.508ZM22.135,4.7a13.289,13.289,0,0,0,.8-2.743c.018-.248.063-.575-.169-.741a2.163,2.163,0,0,0-1.174-.2c-.107,0-.214,0-.317,0a5.85,5.85,0,0,0-.81.067,4.483,4.483,0,0,1-1.077.053C19.4.87,19.655.726,19.864.6a5.382,5.382,0,0,1,3.5-.518c.258.064.576.112.727.36a1.734,1.734,0,0,1,.04.734,6.887,6.887,0,0,1-.912,2.786,3.659,3.659,0,0,1-.784.947A.523.523,0,0,1,22.153,5,.384.384,0,0,1,22.135,4.7Z" transform="translate(0 0)" fill="#6cbc2a"/>
          </g>
        </g>
      </g>
    </g>
  </g>
</svg>
